<svg width="512" height="512" viewBox="0 0 512 512" fill="none" xmlns="http://www.w3.org/2000/svg">
<path d="M256.17 48.73V462.77C248.618 476.361 236.378 486.74 221.735 491.97C207.091 497.199 191.046 496.921 176.593 491.188C162.139 485.455 150.266 474.659 143.188 460.815C136.111 446.97 134.313 431.023 138.13 415.95C125.951 417.86 113.479 416.212 102.214 411.205C90.9485 406.198 81.3686 398.044 74.6254 387.724C67.8822 377.404 64.2624 365.356 64.2011 353.028C64.1399 340.7 67.6396 328.617 74.28 318.23C60.0664 315.068 47.3555 307.155 38.2455 295.796C29.1354 284.437 24.1707 270.311 24.1707 255.75C24.1707 241.189 29.1354 227.063 38.2455 215.704C47.3555 204.345 60.0664 196.432 74.28 193.27C67.6433 182.883 64.1465 170.8 64.2095 158.474C64.2725 146.147 67.8926 134.101 74.635 123.782C81.3774 113.463 90.9555 105.31 102.219 100.302C113.482 95.2938 125.952 93.6438 138.13 95.55C134.296 80.4723 136.084 64.5145 143.158 50.6588C150.233 36.803 162.111 25.9975 176.573 20.2614C191.034 14.5254 207.089 14.2514 221.738 19.4906C236.387 24.7298 248.626 35.1237 256.17 48.73V48.73Z" fill="#00ADB5" id="id_101"></path>
<path d="M496.25 87.75H288.25V423.75H496.25V87.75Z" fill="#f0fdff" id="id_102"></path>
<path d="M288.25 55.75H256.25V455.75H288.25V55.75Z" fill="#ffffff" id="id_103"></path>
<path d="M201.735 288.19C179.88 283.334 164.782 274.197 156.859 261.034C146.902 244.49 151.604 226.527 151.701 226.165C152.258 224.13 151.99 221.958 150.953 220.121C149.917 218.283 148.196 216.93 146.167 216.354C144.137 215.779 141.963 216.029 140.116 217.049C138.27 218.069 136.901 219.778 136.308 221.802C136.024 222.795 129.516 246.379 143.008 269.039C144.949 272.296 147.192 275.363 149.708 278.199C142.939 284.365 132.454 295.785 131.584 308.026C131.342 311.282 131.823 314.551 132.992 317.599C134.161 320.647 135.99 323.398 138.347 325.657C139.09 326.4 139.972 326.989 140.942 327.391C141.913 327.793 142.953 328 144.004 328C145.055 328 146.095 327.793 147.065 327.391C148.036 326.989 148.918 326.4 149.661 325.657C150.404 324.914 150.993 324.032 151.395 323.062C151.797 322.091 152.004 321.051 152.004 320C152.004 318.949 151.797 317.909 151.395 316.938C150.993 315.968 150.404 315.086 149.661 314.343C148.927 313.708 148.352 312.908 147.984 312.01C147.616 311.111 147.465 310.139 147.543 309.171C147.998 302.642 156.055 293.894 161.824 288.844C171.54 295.56 183.688 300.549 198.269 303.81C199.295 304.039 200.355 304.063 201.391 303.882C202.426 303.7 203.415 303.317 204.301 302.752C205.188 302.188 205.955 301.454 206.557 300.593C207.16 299.733 207.587 298.761 207.814 297.735C208.042 296.709 208.065 295.648 207.883 294.613C207.701 293.578 207.316 292.589 206.752 291.703C206.187 290.817 205.454 290.05 204.593 289.447C203.732 288.845 202.761 288.417 201.735 288.19Z" fill="black" id="id_104"></path>
<path d="M496 80H296V56C296 53.8783 295.157 51.8434 293.657 50.3432C292.157 48.8429 290.122 48 288 48H263.92C263.922 46.8047 263.655 45.6242 263.139 44.5459C262.623 43.4676 261.872 42.5189 260.94 41.77C252.642 28.5278 240.261 18.3446 225.666 12.758C211.071 7.17134 195.055 6.48446 180.036 10.801C165.016 15.1176 151.809 24.2034 142.408 36.6865C133.006 49.1697 127.921 64.3726 127.92 80C127.92 82.36 128.03 84.71 128.26 87.03H127.95C115.916 87.0341 104.076 90.0531 93.5092 95.8114C82.9428 101.57 73.9876 109.884 67.4616 119.994C60.9355 130.104 57.0467 141.689 56.1503 153.689C55.2539 165.689 57.3785 177.722 62.33 188.69C48.6808 193.88 36.9321 203.097 28.6421 215.118C20.3521 227.14 15.9127 241.397 15.9127 256C15.9127 270.603 20.3521 284.86 28.6421 296.882C36.9321 308.903 48.6808 318.12 62.33 323.31C57.3785 334.278 55.2539 346.311 56.1503 358.311C57.0467 370.311 60.9355 381.896 67.4616 392.006C73.9876 402.116 82.9428 410.43 93.5092 416.189C104.076 421.947 115.916 424.966 127.95 424.97H128.26C128.03 427.29 127.92 429.64 127.92 432C127.921 447.627 133.006 462.83 142.408 475.313C151.809 487.797 165.016 496.882 180.036 501.199C195.055 505.516 211.071 504.829 225.666 499.242C240.261 493.655 252.642 483.472 260.94 470.23C261.872 469.481 262.623 468.532 263.139 467.454C263.655 466.376 263.922 465.195 263.92 464H288C290.122 464 292.157 463.157 293.657 461.657C295.157 460.157 296 458.122 296 456V432H496C498.122 432 500.157 431.157 501.657 429.657C503.157 428.157 504 426.122 504 424V88C504 85.8783 503.157 83.8434 501.657 82.3432C500.157 80.8429 498.122 80 496 80ZM247.92 163.6C231.57 146.72 214.42 152.09 213.47 152.41L218.53 167.59L218.37 167.64C219.06 167.45 235.27 163.29 247.92 193.41V460.87C241.005 472.354 230.202 480.977 217.471 485.173C204.74 489.37 190.926 488.863 178.538 483.742C166.15 478.622 156.009 469.229 149.956 457.269C143.903 445.309 142.339 431.575 145.55 418.56C154.061 414.828 161.661 409.294 167.827 402.34C173.992 395.386 178.575 387.177 181.26 378.28C181.593 377.264 181.719 376.191 181.631 375.126C181.543 374.06 181.241 373.023 180.745 372.076C180.249 371.129 179.568 370.29 178.743 369.611C177.917 368.931 176.964 368.424 175.939 368.119C174.914 367.814 173.839 367.718 172.776 367.836C171.713 367.954 170.685 368.284 169.752 368.806C168.819 369.328 168 370.032 167.343 370.876C166.687 371.72 166.206 372.687 165.93 373.72C162.934 383.602 156.849 392.264 148.568 398.434C140.287 404.603 130.246 407.956 119.92 408C119.42 408.001 118.921 408.047 118.43 408.14C109.33 406.57 100.76 402.774 93.4817 397.09C86.2039 391.406 80.4447 384.01 76.7169 375.562C72.989 367.113 71.4083 357.874 72.1155 348.667C72.8226 339.46 75.7957 330.57 80.77 322.79C81.4634 321.705 81.8845 320.468 81.9977 319.185C82.1108 317.902 81.9125 316.611 81.4197 315.421C80.9268 314.231 80.154 313.178 79.1669 312.351C78.1799 311.524 77.0077 310.947 75.75 310.67C63.316 307.9 52.1976 300.975 44.2291 291.036C36.2607 281.097 31.9183 268.739 31.9183 256C31.9183 243.261 36.2607 230.903 44.2291 220.964C52.1976 211.025 63.316 204.1 75.75 201.33C77.0077 201.053 78.1799 200.476 79.1669 199.649C80.154 198.822 80.9268 197.769 81.4197 196.579C81.9125 195.389 82.1108 194.098 81.9977 192.815C81.8845 191.532 81.4634 190.295 80.77 189.21C75.7957 181.43 72.8226 172.54 72.1155 163.333C71.4083 154.126 72.989 144.887 76.7169 136.438C80.4447 127.99 86.2039 120.594 93.4817 114.91C100.76 109.226 109.33 105.43 118.43 103.86C118.921 103.953 119.42 103.999 119.92 104C130.246 104.044 140.287 107.397 148.568 113.566C156.849 119.736 162.934 128.398 165.93 138.28C166.419 139.932 167.429 141.382 168.809 142.413C170.19 143.444 171.867 144.001 173.59 144C174.365 143.998 175.136 143.887 175.88 143.67C177.913 143.064 179.621 141.675 180.63 139.809C181.639 137.943 181.866 135.753 181.26 133.72C178.575 124.823 173.992 116.614 167.827 109.66C161.661 102.706 154.061 97.1721 145.55 93.44C142.336 80.4245 143.897 66.6879 149.949 54.7254C156.002 42.7628 166.144 33.3679 178.534 28.2471C190.924 23.1262 204.74 22.6192 217.471 26.8181C230.203 31.017 241.007 39.6433 247.92 51.13V163.6ZM280 448H264V64H280V448ZM488 416H296V96H488V416Z" fill="black" id="id_105"></path>
<path d="M321.344 172.438C322.526 174.191 324.354 175.404 326.429 175.813C328.503 176.222 330.655 175.794 332.414 174.621C334.173 173.448 335.397 171.626 335.817 169.554C336.237 167.482 335.819 165.327 334.656 163.562L321.615 144L334.656 124.438C335.245 123.564 335.656 122.582 335.865 121.549C336.074 120.516 336.076 119.451 335.872 118.417C335.669 117.383 335.262 116.399 334.677 115.522C334.092 114.646 333.339 113.893 332.462 113.308C331.585 112.724 330.601 112.318 329.566 112.115C328.532 111.911 327.467 111.915 326.434 112.124C325.401 112.333 324.42 112.745 323.546 113.335C322.672 113.925 321.924 114.682 321.344 115.562L305.344 139.562C304.468 140.876 304 142.42 304 144C304 145.58 304.468 147.124 305.344 148.438L321.344 172.438Z" fill="black" id="id_106"></path>
<path d="M387.756 174.656C389.521 175.833 391.682 176.261 393.762 175.845C395.843 175.429 397.673 174.203 398.85 172.438L414.85 148.438C415.726 147.124 416.194 145.58 416.194 144C416.194 142.42 415.726 140.876 414.85 139.562L398.85 115.562C397.673 113.797 395.843 112.571 393.762 112.155C391.682 111.739 389.521 112.166 387.755 113.344C385.99 114.521 384.765 116.351 384.348 118.431C383.932 120.512 384.36 122.673 385.537 124.438L398.578 144L385.537 163.562C384.954 164.436 384.549 165.417 384.345 166.447C384.142 167.478 384.143 168.538 384.349 169.569C384.555 170.599 384.962 171.578 385.546 172.451C386.131 173.324 386.882 174.073 387.756 174.656Z" fill="black" id="id_107"></path>
<path d="M349.47 175.589C350.467 175.922 351.519 176.056 352.567 175.982C353.616 175.908 354.639 175.628 355.579 175.158C356.519 174.689 357.357 174.038 358.046 173.244C358.734 172.449 359.259 171.527 359.59 170.53L375.59 122.53C375.922 121.533 376.055 120.481 375.98 119.433C375.906 118.385 375.626 117.362 375.156 116.422C374.686 115.482 374.036 114.644 373.242 113.956C372.448 113.268 371.527 112.742 370.53 112.41C369.533 112.078 368.481 111.945 367.433 112.02C366.385 112.094 365.362 112.374 364.422 112.844C362.524 113.793 361.081 115.457 360.41 117.47L344.41 165.47C343.739 167.483 343.895 169.68 344.844 171.577C345.793 173.475 347.457 174.918 349.47 175.589V175.589Z" fill="black" id="id_108"></path>
<path d="M304 200C304 202.122 304.843 204.157 306.343 205.657C307.843 207.157 309.878 208 312 208H472C474.122 208 476.157 207.157 477.657 205.657C479.157 204.157 480 202.122 480 200C480 197.878 479.157 195.843 477.657 194.343C476.157 192.843 474.122 192 472 192H312C309.878 192 307.843 192.843 306.343 194.343C304.843 195.843 304 197.878 304 200Z" fill="black" id="id_109"></path>
<path d="M312 232H424C426.122 232 428.157 231.157 429.657 229.657C431.157 228.157 432 226.122 432 224C432 221.878 431.157 219.843 429.657 218.343C428.157 216.843 426.122 216 424 216H312C309.878 216 307.843 216.843 306.343 218.343C304.843 219.843 304 221.878 304 224C304 226.122 304.843 228.157 306.343 229.657C307.843 231.157 309.878 232 312 232Z" fill="black" id="id_110"></path>
<path d="M472 240H312C309.878 240 307.843 240.843 306.343 242.343C304.843 243.843 304 245.878 304 248C304 250.122 304.843 252.157 306.343 253.657C307.843 255.157 309.878 256 312 256H472C474.122 256 476.157 255.157 477.657 253.657C479.157 252.157 480 250.122 480 248C480 245.878 479.157 243.843 477.657 242.343C476.157 240.843 474.122 240 472 240Z" fill="black" id="id_111"></path>
<path d="M312 280H392C394.122 280 396.157 279.157 397.657 277.657C399.157 276.157 400 274.122 400 272C400 269.878 399.157 267.843 397.657 266.343C396.157 264.843 394.122 264 392 264H312C309.878 264 307.843 264.843 306.343 266.343C304.843 267.843 304 269.878 304 272C304 274.122 304.843 276.157 306.343 277.657C307.843 279.157 309.878 280 312 280Z" fill="black" id="id_112"></path>
<path d="M472 288H312C309.878 288 307.843 288.843 306.343 290.343C304.843 291.843 304 293.878 304 296C304 298.122 304.843 300.157 306.343 301.657C307.843 303.157 309.878 304 312 304H472C474.122 304 476.157 303.157 477.657 301.657C479.157 300.157 480 298.122 480 296C480 293.878 479.157 291.843 477.657 290.343C476.157 288.843 474.122 288 472 288Z" fill="black" id="id_113"></path>
<path d="M472 312H312C309.878 312 307.843 312.843 306.343 314.343C304.843 315.843 304 317.878 304 320C304 322.122 304.843 324.157 306.343 325.657C307.843 327.157 309.878 328 312 328H472C474.122 328 476.157 327.157 477.657 325.657C479.157 324.157 480 322.122 480 320C480 317.878 479.157 315.843 477.657 314.343C476.157 312.843 474.122 312 472 312Z" fill="black" id="id_114"></path>
<path d="M312 352H424C426.122 352 428.157 351.157 429.657 349.657C431.157 348.157 432 346.122 432 344C432 341.878 431.157 339.843 429.657 338.343C428.157 336.843 426.122 336 424 336H312C309.878 336 307.843 336.843 306.343 338.343C304.843 339.843 304 341.878 304 344C304 346.122 304.843 348.157 306.343 349.657C307.843 351.157 309.878 352 312 352Z" fill="black" id="id_115"></path>
<path d="M472 360H312C309.878 360 307.843 360.843 306.343 362.343C304.843 363.843 304 365.878 304 368C304 370.122 304.843 372.157 306.343 373.657C307.843 375.157 309.878 376 312 376H472C474.122 376 476.157 375.157 477.657 373.657C479.157 372.157 480 370.122 480 368C480 365.878 479.157 363.843 477.657 362.343C476.157 360.843 474.122 360 472 360Z" fill="black" id="id_116"></path>
<path d="M424 384H312C309.878 384 307.843 384.843 306.343 386.343C304.843 387.843 304 389.878 304 392C304 394.122 304.843 396.157 306.343 397.657C307.843 399.157 309.878 400 312 400H424C426.122 400 428.157 399.157 429.657 397.657C431.157 396.157 432 394.122 432 392C432 389.878 431.157 387.843 429.657 386.343C428.157 384.843 426.122 384 424 384Z" fill="black" id="id_117"></path>
</svg>